<svg width="40" height="40" viewBox="0 0 40 40" fill="none" xmlns="http://www.w3.org/2000/svg">
<g clip-path="url(#clip0_8_648)">
<path d="M10.0026 5C12.8532 4.99952 15.6054 6.04274 17.7395 7.93269C19.8736 9.82265 21.2418 12.4285 21.5859 15.2583C22.6726 14.121 23.9789 13.2162 25.4257 12.5988C26.8725 11.9814 28.4296 11.6643 30.0026 11.6667H35.0026C35.4446 11.6667 35.8686 11.8423 36.1811 12.1548C36.4937 12.4674 36.6693 12.8913 36.6693 13.3333V15C36.6693 18.0942 35.4401 21.0617 33.2522 23.2496C31.0643 25.4375 28.0968 26.6667 25.0026 26.6667H21.6693V33.3333C21.6693 33.7754 21.4937 34.1993 21.1811 34.5118C20.8686 34.8244 20.4446 35 20.0026 35C19.5606 35 19.1367 34.8244 18.8241 34.5118C18.5115 34.1993 18.3359 33.7754 18.3359 33.3333V21.6667H15.0026C11.9084 21.6667 8.94095 20.4375 6.75302 18.2496C4.5651 16.0617 3.33594 13.0942 3.33594 10V6.66667C3.33594 6.22464 3.51153 5.80072 3.82409 5.48816C4.13665 5.17559 4.56058 5 5.0026 5H10.0026Z" fill="#165D31"/>
</g>
<defs>
<clipPath id="clip0_8_648">
<rect width="40" height="40" fill="white"/>
</clipPath>
</defs>
</svg>
