<svg width="24" height="24" viewBox="0 0 24 24" fill="none" xmlns="http://www.w3.org/2000/svg">
<g clip-path="url(#clip0_8_637)">
<path d="M3.00179 4.99911C3.00179 4.7339 3.10714 4.47954 3.29468 4.29201C3.48222 4.10447 3.73657 3.99911 4.00179 3.99911C4.00207 3.74424 4.09967 3.49908 4.27464 3.31375C4.4496 3.12841 4.68874 3.01688 4.94318 3.00194C5.19762 2.98701 5.44817 3.06979 5.64362 3.23338C5.83907 3.39697 5.96468 3.62902 5.99479 3.88211L6.00179 3.99911C6.25667 3.9994 6.50182 4.09699 6.68716 4.27196C6.87249 4.44693 6.98402 4.68607 6.99896 4.94051C7.0139 5.19495 6.93111 5.44549 6.76752 5.64095C6.60393 5.8364 6.37188 5.96201 6.11879 5.99212L6.00179 5.99911C6.00179 6.26433 5.89643 6.51869 5.70889 6.70622C5.52136 6.89376 5.267 6.99911 5.00179 6.99911C4.73657 6.99911 4.48222 6.89376 4.29468 6.70622C4.10714 6.51869 4.00179 6.26433 4.00179 5.99911C3.73657 5.99911 3.48222 5.89376 3.29468 5.70622C3.10714 5.51869 3.00179 5.26433 3.00179 4.99911ZM10.5318 3.75611C10.5629 3.62792 10.6191 3.50716 10.6972 3.40078C10.7752 3.2944 10.8735 3.20451 10.9864 3.13629C11.0993 3.06806 11.2246 3.02286 11.3551 3.00327C11.4855 2.98368 11.6186 2.9901 11.7465 3.02216C11.8745 3.05422 11.9949 3.11128 12.1007 3.19006C12.2065 3.26884 12.2957 3.36778 12.3631 3.48117C12.4305 3.59457 12.4748 3.72019 12.4935 3.85078C12.5121 3.98138 12.5048 4.11438 12.4718 4.24211L11.9718 6.24212C11.9406 6.37031 11.8844 6.49107 11.8064 6.59745C11.7284 6.70383 11.6301 6.79372 11.5172 6.86194C11.4043 6.93017 11.279 6.97537 11.1485 6.99496C11.0181 7.01455 10.885 7.00813 10.757 6.97607C10.6291 6.94401 10.5087 6.88695 10.4029 6.80817C10.2971 6.72939 10.2079 6.63045 10.1405 6.51706C10.0731 6.40366 10.0288 6.27804 10.0101 6.14745C9.99145 6.01685 9.99882 5.88385 10.0318 5.75611L10.5318 3.75611ZM17.0018 4.99911C17.0018 4.7339 17.1071 4.47954 17.2947 4.29201C17.4822 4.10447 17.7366 3.99911 18.0018 3.99911C18.0021 3.74424 18.0997 3.49908 18.2746 3.31375C18.4496 3.12841 18.6887 3.01688 18.9432 3.00194C19.1976 2.98701 19.4482 3.06979 19.6436 3.23338C19.8391 3.39697 19.9647 3.62902 19.9948 3.88211L20.0018 3.99911C20.2567 3.9994 20.5018 4.09699 20.6872 4.27196C20.8725 4.44693 20.984 4.68607 20.999 4.94051C21.0139 5.19495 20.9311 5.44549 20.7675 5.64095C20.6039 5.8364 20.3719 5.96201 20.1188 5.99212L20.0018 5.99911C20.0018 6.26433 19.8964 6.51869 19.7089 6.70622C19.5214 6.89376 19.267 6.99911 19.0018 6.99911C18.7366 6.99911 18.4822 6.89376 18.2947 6.70622C18.1071 6.51869 18.0018 6.26433 18.0018 5.99911C17.7366 5.99911 17.4822 5.89376 17.2947 5.70622C17.1071 5.51869 17.0018 5.26433 17.0018 4.99911ZM8.19179 9.29212L14.7088 15.8101C14.823 15.9241 14.908 16.0641 14.9564 16.2181C15.0048 16.3721 15.0152 16.5356 14.9867 16.6945C14.9582 16.8533 14.8917 17.003 14.7928 17.1306C14.6939 17.2582 14.5656 17.3599 14.4188 17.4271L4.84579 21.8141C4.47429 21.9875 4.05848 22.0425 3.65467 21.9717C3.25086 21.9009 2.87856 21.7078 2.58819 21.4184C2.29781 21.129 2.10338 20.7573 2.03122 20.3538C1.95907 19.9502 2.01268 19.5342 2.18479 19.1621L6.57479 9.58212C6.64205 9.43553 6.74378 9.3074 6.87128 9.20863C6.99878 9.10987 7.14828 9.04341 7.30702 9.01492C7.46577 8.98643 7.62904 8.99676 7.78293 9.04503C7.93682 9.0933 8.07775 9.17807 8.19179 9.29212ZM15.7078 8.29212C15.8953 8.47964 16.0006 8.73395 16.0006 8.99911C16.0006 9.26428 15.8953 9.51859 15.7078 9.70611L14.7078 10.7061C14.5192 10.8883 14.2666 10.9891 14.0044 10.9868C13.7422 10.9845 13.4914 10.8793 13.306 10.6939C13.1206 10.5085 13.0154 10.2577 13.0131 9.99552C13.0108 9.73332 13.1116 9.48072 13.2938 9.29212L14.2938 8.29212C14.4813 8.10464 14.7356 7.99933 15.0008 7.99933C15.266 7.99933 15.5203 8.10464 15.7078 8.29212ZM19.7578 11.5291C20.0143 11.4668 20.2851 11.5084 20.511 11.6449C20.7369 11.7815 20.8997 12.0018 20.9639 12.2578C21.028 12.5139 20.9883 12.785 20.8534 13.0119C20.7185 13.2388 20.4994 13.4031 20.2438 13.4691L18.2438 13.9691C17.9873 14.0314 17.7165 13.9898 17.4906 13.8533C17.2646 13.7168 17.1018 13.4965 17.0377 13.2404C16.9735 12.9843 17.0132 12.7133 17.1481 12.4864C17.283 12.2595 17.5022 12.0951 17.7578 12.0291L19.7578 11.5291ZM17.0018 18.9991C17.0018 18.7339 17.1071 18.4795 17.2947 18.292C17.4822 18.1045 17.7366 17.9991 18.0018 17.9991C18.0021 17.7442 18.0997 17.4991 18.2746 17.3137C18.4496 17.1284 18.6887 17.0169 18.9432 17.0019C19.1976 16.987 19.4482 17.0698 19.6436 17.2334C19.8391 17.397 19.9647 17.629 19.9948 17.8821L20.0018 17.9991C20.2567 17.9994 20.5018 18.097 20.6872 18.272C20.8725 18.4469 20.984 18.6861 20.999 18.9405C21.0139 19.195 20.9311 19.4455 20.7675 19.6409C20.6039 19.8364 20.3719 19.962 20.1188 19.9921L20.0018 19.9991C20.0018 20.2643 19.8964 20.5187 19.7089 20.7062C19.5214 20.8938 19.267 20.9991 19.0018 20.9991C18.7366 20.9991 18.4822 20.8938 18.2947 20.7062C18.1071 20.5187 18.0018 20.2643 18.0018 19.9991C17.7366 19.9991 17.4822 19.8938 17.2947 19.7062C17.1071 19.5187 17.0018 19.2643 17.0018 18.9991Z" fill="#FFAA14"/>
</g>
<defs>
<clipPath id="clip0_8_637">
<rect width="24" height="24" fill="white"/>
</clipPath>
</defs>
</svg>
